# xmcd
#
# Track frame offsets:
#	150
#	10881
#	24100
#	34406
#	47771
#	60894
#	73103
#	85195
#	96841
#	108657
#	120943
#	136188
#	142259
#	157139
#	169272
#	182240
#	198308
#	203887
#
# Disc length: 2827 seconds
#
# Revision: 0
# Processed by: cddbd v1.5.2PL0 Copyright (c) Steve Scherf et al.
# Submitted via: EasyCDDAExtractor 11.1.0.1
#
DISCID=fb0b0912
DTITLE=Bosák Jiří - Pivní pěna - Bosákovy sprosté písně z kadibudky N-S [CD3)
DYEAR=2007
DGENRE=Country
TTITLE0=Nalejvaj se pupence
TTITLE1=Nám je to jedno
TTITLE2=Našel to dědeček
TTITLE3=Nedělní chvilka poezie
TTITLE4=Od Tábora jedou vozy
TTITLE5=Okolo Súče
TTITLE6=Pan účetní z pivovára
TTITLE7=Panna Juliána
TTITLE8=Po reke Ondave
TTITLE9=Pohádka o princezně a o hrádku
TTITLE10=Poslechněte novinu
TTITLE11=Postavil jí ke plotu
TTITLE12=Proč se ty hájové
TTITLE13=Průtrž májová
TTITLE14=Pytláci, pytláci
TTITLE15=Pytlácké milování
TTITLE16=Rybičky, plotvičky
TTITLE17=Sedla selka
EXTD=
EXTT0=
EXTT1=
EXTT2=
EXTT3=
EXTT4=
EXTT5=
EXTT6=
EXTT7=
EXTT8=
EXTT9=
EXTT10=
EXTT11=
EXTT12=
EXTT13=
EXTT14=
EXTT15=
EXTT16=
EXTT17=
PLAYORDER=
